<?xml version="1.0" standalone="no"?><!DOCTYPE svg PUBLIC "-//W3C//DTD SVG 1.1//EN" "http://www.w3.org/Graphics/SVG/1.1/DTD/svg11.dtd"><svg t="1698663452574" class="icon" viewBox="0 0 1024 1024" version="1.1" xmlns="http://www.w3.org/2000/svg" p-id="1769" xmlns:xlink="http://www.w3.org/1999/xlink" width="200" height="200"><path d="M155.904 524.544l-64.142222 341.105778c-5.276444 27.989333 18.816 52.622222 46.506666 47.559111l354.830223-64.967111c32.426667-5.944889 44.316444-46.762667 20.295111-69.589334L222.705778 502.513778c-23.04-21.902222-60.899556-9.429333-66.801778 22.030222z m65.123556 87.722667l179.370666 170.410666-218.965333 40.092445 39.594667-210.488889z" fill="#d81e06" p-id="1770"></path><path d="M559.288889 113.848889a39.722667 39.722667 0 0 1 54.798222-0.952889l0.881778 0.824889 302.691555 294.4a40.974222 40.974222 0 0 1 1.080889 57.500444l-0.853333 0.867556-134.314667 132.664889-55.978666-58.154667 104.647111-103.352889-244.920889-238.222222-363.136 356.494222-55.808-58.311111L559.288889 113.834667z" fill="#d81e06" p-id="1771"></path><path d="M558.705778 288.170667l56.988444 57.144889-196.465778 201.002666-56.988444-57.130666zM640.896 372.309333l56.988444 57.130667-196.465777 201.002667-56.988445-57.130667z" fill="#d81e06" p-id="1772"></path><path d="M657.777778 601.216l52.935111 61.013333L508.444444 842.183111l-52.906666-61.013333z" fill="#d81e06" p-id="1773"></path></svg>