<svg t="1699268059780" class="icon" viewBox="0 0 1024 1024" version="1.1" xmlns="http://www.w3.org/2000/svg" p-id="4541" width="200" height="200"><path d="M806.4 738.133333H183.466667c-83.2 0-151.466667-68.266667-151.466667-151.466666V270.933333c0-83.2 68.266667-151.466667 151.466667-151.466666h622.933333c83.2 0 151.466667 68.266667 151.466667 151.466666v315.733334c0 83.2-68.266667 151.466667-151.466667 151.466666zM183.466667 183.466667c-49.066667 0-87.466667 38.4-87.466667 87.466666v315.733334c0 49.066667 38.4 87.466667 87.466667 87.466666h622.933333c49.066667 0 87.466667-38.4 87.466667-87.466666V270.933333c0-49.066667-38.4-87.466667-87.466667-87.466666H183.466667z" fill="#2c2c2c" p-id="4542"></path><path d="M925.866667 872.533333H64c-17.066667 0-32-14.933333-32-32s14.933333-32 32-32h861.866667c17.066667 0 32 14.933333 32 32s-14.933333 32-32 32z" fill="#2c2c2c" p-id="4543"></path></svg>